<?xml version="1.0" encoding="UTF-8" standalone="no"?>
<!-- Generator: Gravit.io --><svg xmlns="http://www.w3.org/2000/svg" xmlns:xlink="http://www.w3.org/1999/xlink"
    style="isolation:isolate" viewBox="0 0 1024 553" width="1024pt" height="553pt">
    <mask id="_mask_FncPNBqNHYuTXsIKE2LnOAe18umwVzBB" x="-200%" y="-200%" width="400%" height="400%">
        <rect x="-200%" y="-200%" width="400%" height="400%" style="fill:white;" />
        <path
            d=" M 576.339 534.581 L 825.834 394 L 1075.339 534.581 L 1075.339 815.743 L 825.834 956.302 L 576.339 815.743 L 576.339 534.581 Z "
            fill-rule="evenodd" fill="black" fill-opacity="0.75" stroke="none" />
    </mask>
    <path
        d=" M 576.339 534.581 L 825.834 394 L 1075.339 534.581 L 1075.339 815.743 L 825.834 956.302 L 576.339 815.743 L 576.339 534.581 Z "
        fill-rule="evenodd" fill="rgb(30,61,121)" fill-opacity="0.75" />
    <path
        d=" M 576.339 534.581 L 825.834 394 L 1075.339 534.581 L 1075.339 815.743 L 825.834 956.302 L 576.339 815.743 L 576.339 534.581 Z "
        fill-rule="evenodd" fill="rgb(30,61,121)" fill-opacity="0.75"
        mask="url(#_mask_FncPNBqNHYuTXsIKE2LnOAe18umwVzBB)" vector-effect="non-scaling-stroke" stroke-width="12"
        stroke="rgb(30,61,121)" stroke-opacity="0.25" stroke-linejoin="round" stroke-linecap="round"
        stroke-miterlimit="3" />
    <mask id="_mask_3BSgns44L9antjZRqXF4MdQU5UGKsUrA" x="-200%" y="-200%" width="400%" height="400%">
        <rect x="-200%" y="-200%" width="400%" height="400%" style="fill:white;" />
        <path
            d=" M 576.345 -228.885 L 825.839 -369.466 L 1075.345 -228.885 L 1075.345 52.278 L 825.839 192.836 L 576.345 52.278 L 576.345 -228.885 Z "
            fill-rule="evenodd" fill="black" fill-opacity="0.75" stroke="none" />
    </mask>
    <path
        d=" M 576.345 -228.885 L 825.839 -369.466 L 1075.345 -228.885 L 1075.345 52.278 L 825.839 192.836 L 576.345 52.278 L 576.345 -228.885 Z "
        fill-rule="evenodd" fill="rgb(30,61,121)" fill-opacity="0.75" />
    <path
        d=" M 576.345 -228.885 L 825.839 -369.466 L 1075.345 -228.885 L 1075.345 52.278 L 825.839 192.836 L 576.345 52.278 L 576.345 -228.885 Z "
        fill-rule="evenodd" fill="rgb(30,61,121)" fill-opacity="0.75"
        mask="url(#_mask_3BSgns44L9antjZRqXF4MdQU5UGKsUrA)" vector-effect="non-scaling-stroke" stroke-width="12"
        stroke="rgb(30,61,121)" stroke-opacity="0.25" stroke-linejoin="round" stroke-linecap="round"
        stroke-miterlimit="3" />
    <mask id="_mask_Odop3Eisbp4LOQK2RJ0aMKb2dQwRGk1t" x="-200%" y="-200%" width="400%" height="400%">
        <rect x="-200%" y="-200%" width="400%" height="400%" style="fill:white;" />
        <path
            d=" M 409 44.565 L 480.348 4.742 L 551.7 44.565 L 551.7 124.209 L 480.348 164.026 L 409 124.209 L 409 44.565 Z "
            fill-rule="evenodd" fill="black" fill-opacity="0.12" stroke="none" />
    </mask>
    <path
        d=" M 409 44.565 L 480.348 4.742 L 551.7 44.565 L 551.7 124.209 L 480.348 164.026 L 409 124.209 L 409 44.565 Z "
        fill-rule="evenodd" fill="rgb(30,61,121)" fill-opacity="0.12" />
    <path
        d=" M 409 44.565 L 480.348 4.742 L 551.7 44.565 L 551.7 124.209 L 480.348 164.026 L 409 124.209 L 409 44.565 Z "
        fill-rule="evenodd" fill="rgb(30,61,121)" fill-opacity="0.12"
        mask="url(#_mask_Odop3Eisbp4LOQK2RJ0aMKb2dQwRGk1t)" vector-effect="non-scaling-stroke" stroke-width="3"
        stroke="rgb(30,61,121)" stroke-opacity="0.12" stroke-linejoin="round" stroke-linecap="round"
        stroke-miterlimit="3" />
    <path
        d=" M -36 230.631 L 82.997 164.026 L 202 230.631 L 202 363.843 L 82.997 430.438 L -36 363.843 L -36 230.631 Z "
        fill-rule="evenodd" fill="none" vector-effect="non-scaling-stroke" stroke-width="2" stroke="rgb(30,61,121)"
        stroke-linejoin="round" stroke-linecap="round" stroke-miterlimit="202" />
    <mask id="_mask_1PQzhQuol8RUfau7iD5eEi3REtXyUW6x" x="-200%" y="-200%" width="400%" height="400%">
        <rect x="-200%" y="-200%" width="400%" height="400%" style="fill:white;" />
        <path
            d=" M 601 242.232 L 680.824 193.676 L 760.652 242.232 L 760.652 339.344 L 680.824 387.892 L 601 339.344 L 601 242.232 Z "
            fill-rule="evenodd" fill="black" stroke="none" />
    </mask>
    <path
        d=" M 601 242.232 L 680.824 193.676 L 760.652 242.232 L 760.652 339.344 L 680.824 387.892 L 601 339.344 L 601 242.232 Z "
        fill-rule="evenodd" fill="none" />
    <path
        d=" M 601 242.232 L 680.824 193.676 L 760.652 242.232 L 760.652 339.344 L 680.824 387.892 L 601 339.344 L 601 242.232 Z "
        fill-rule="evenodd" fill="none" mask="url(#_mask_1PQzhQuol8RUfau7iD5eEi3REtXyUW6x)"
        vector-effect="non-scaling-stroke" stroke-width="4.407" stroke="rgb(30,61,121)" stroke-linejoin="round"
        stroke-linecap="round" stroke-miterlimit="202" />
    <path
        d=" M 925.344 84.659 L 938.672 77.265 L 952 84.659 L 952 99.446 L 938.672 106.839 L 925.344 99.446 L 925.344 84.659 Z "
        fill-rule="evenodd" fill="rgb(255,178,77)" vector-effect="non-scaling-stroke" stroke-width="1.223"
        stroke="rgb(255,178,77)" stroke-linejoin="round" stroke-linecap="round" stroke-miterlimit="202" />
    <path
        d=" M 948.344 302.339 L 969.172 290.784 L 990 302.339 L 990 325.447 L 969.172 337 L 948.344 325.447 L 948.344 302.339 Z "
        fill-rule="evenodd" fill="none" vector-effect="non-scaling-stroke" stroke-width="2" stroke="rgb(255,178,77)"
        stroke-linejoin="round" stroke-linecap="round" stroke-miterlimit="202" />
</svg>