<?xml version="1.0" encoding="UTF-8" standalone="no"?><!-- Generator: Gravit.io --><svg xmlns="http://www.w3.org/2000/svg" xmlns:xlink="http://www.w3.org/1999/xlink" style="isolation:isolate" viewBox="0 0 1024 553" width="1024pt" height="553pt"><mask id="_mask_YfydAruexX6IJKAjRVxMVaAXhaLJdXE4" x="-200%" y="-200%" width="400%" height="400%"><rect x="-200%" y="-200%" width="400%" height="400%" style="fill:white;"/><path d=" M 577.345 174.464 L 796.461 51 L 1015.587 174.464 L 1015.587 421.392 L 796.461 544.836 L 577.345 421.392 L 577.345 174.464 Z " fill-rule="evenodd" fill="black" stroke="none"/></mask><path d=" M 577.345 174.464 L 796.461 51 L 1015.587 174.464 L 1015.587 421.392 L 796.461 544.836 L 577.345 421.392 L 577.345 174.464 Z " fill-rule="evenodd" fill="rgb(227,230,241)"/><path d=" M 577.345 174.464 L 796.461 51 L 1015.587 174.464 L 1015.587 421.392 L 796.461 544.836 L 577.345 421.392 L 577.345 174.464 Z " fill-rule="evenodd" fill="rgb(227,230,241)" mask="url(#_mask_YfydAruexX6IJKAjRVxMVaAXhaLJdXE4)" vector-effect="non-scaling-stroke" stroke-width="4" stroke="rgb(227,230,241)" stroke-linejoin="round" stroke-linecap="round" stroke-miterlimit="3"/><path d=" M 854.603 52.224 L 932.627 8.26 L 1010.655 52.224 L 1010.655 140.152 L 932.627 184.11 L 854.603 140.152 L 854.603 52.224 Z " fill-rule="evenodd" fill="rgb(24,82,153)" fill-opacity="0.25"/><path d=" M 983.891 55.363 L 994.727 49.315 L 1005.563 55.363 L 1005.563 67.458 L 994.727 73.505 L 983.891 67.458 L 983.891 55.363 Z " fill-rule="evenodd" fill="rgb(17,123,215)"/><path d=" M 71.493 85.796 L 190.49 19.19 L 309.493 85.796 L 309.493 219.007 L 190.49 285.603 L 71.493 219.007 L 71.493 85.796 Z " fill-rule="evenodd" fill="none" vector-effect="non-scaling-stroke" stroke-width="2" stroke="rgb(215,224,228)" stroke-linejoin="round" stroke-linecap="round" stroke-miterlimit="202"/><mask id="_mask_ohcsCgMxe7oaouOMRr3hJ0C4p5wKUmaE" x="-200%" y="-200%" width="400%" height="400%"><rect x="-200%" y="-200%" width="400%" height="400%" style="fill:white;"/><path d=" M 548 119.191 L 627.748 72.752 L 707.5 119.191 L 707.5 212.069 L 627.748 258.5 L 548 212.069 L 548 119.191 Z " fill-rule="evenodd" fill="black" stroke="none"/></mask><path d=" M 548 119.191 L 627.748 72.752 L 707.5 119.191 L 707.5 212.069 L 627.748 258.5 L 548 212.069 L 548 119.191 Z " fill-rule="evenodd" fill="none"/><path d=" M 548 119.191 L 627.748 72.752 L 707.5 119.191 L 707.5 212.069 L 627.748 258.5 L 548 212.069 L 548 119.191 Z " fill-rule="evenodd" fill="none" mask="url(#_mask_ohcsCgMxe7oaouOMRr3hJ0C4p5wKUmaE)" vector-effect="non-scaling-stroke" stroke-width="4" stroke="rgb(215,224,228)" stroke-linejoin="round" stroke-linecap="round" stroke-miterlimit="202"/><mask id="_mask_AYaEU45Q4WcDUGWCOxjahxfdQhhrvDKt" x="-200%" y="-200%" width="400%" height="400%"><rect x="-200%" y="-200%" width="400%" height="400%" style="fill:white;"/><path d=" M 719.5 318.121 L 757.499 295.993 L 795.5 318.121 L 795.5 362.376 L 757.499 384.5 L 719.5 362.376 L 719.5 318.121 Z " fill-rule="evenodd" fill="black" stroke="none"/></mask><path d=" M 719.5 318.121 L 757.499 295.993 L 795.5 318.121 L 795.5 362.376 L 757.499 384.5 L 719.5 362.376 L 719.5 318.121 Z " fill-rule="evenodd" fill="none"/><path d=" M 719.5 318.121 L 757.499 295.993 L 795.5 318.121 L 795.5 362.376 L 757.499 384.5 L 719.5 362.376 L 719.5 318.121 Z " fill-rule="evenodd" fill="none" mask="url(#_mask_AYaEU45Q4WcDUGWCOxjahxfdQhhrvDKt)" vector-effect="non-scaling-stroke" stroke-width="4" stroke="rgb(215,224,228)" stroke-linejoin="round" stroke-linecap="round" stroke-miterlimit="202"/><path d=" M 54.933 129.868 L 108.269 100.279 L 161.607 129.868 L 161.607 189.046 L 108.269 218.63 L 54.933 189.046 L 54.933 129.868 Z " fill-rule="evenodd" fill="rgb(255,178,77)" vector-effect="non-scaling-stroke" stroke-width="4.893" stroke="rgb(255,178,77)" stroke-linejoin="round" stroke-linecap="round" stroke-miterlimit="202"/><path d=" M 104.384 25.913 L 119.434 17.563 L 134.484 25.913 L 134.484 42.611 L 119.434 50.959 L 104.384 42.611 L 104.384 25.913 Z " fill-rule="evenodd" fill="rgb(255,178,77)" vector-effect="non-scaling-stroke" stroke-width="1.381" stroke="rgb(255,178,77)" stroke-linejoin="round" stroke-linecap="round" stroke-miterlimit="202"/><path d=" M 729.863 30.458 L 749.863 19.363 L 769.863 30.458 L 769.863 52.648 L 749.863 63.741 L 729.863 52.648 L 729.863 30.458 Z " fill-rule="evenodd" fill="none" vector-effect="non-scaling-stroke" stroke-width="1.92" stroke="rgb(255,178,77)" stroke-linejoin="round" stroke-linecap="round" stroke-miterlimit="202"/></svg>